<svg width="919" height="927" xmlns="http://www.w3.org/2000/svg" xmlns:xlink="http://www.w3.org/1999/xlink" overflow="hidden"><defs><clipPath id="clip0"><rect x="3165" y="1382" width="919" height="927"/></clipPath></defs><g clip-path="url(#clip0)" transform="translate(-3165 -1382)"><path d="M3165.46 1770.3 3170.84 1734.12 3234.31 1743.55C3247.63 1745.53 3257.6 1748.22 3264.2 1751.62 3270.8 1755.02 3275.99 1760.65 3279.76 1768.51 3283.53 1776.38 3284.58 1785.89 3282.93 1797.04 3281.17 1808.84 3278.22 1817.74 3274.07 1823.75 3269.92 1829.75 3264.51 1834.07 3257.85 1836.69 3251.19 1839.31 3243.3 1840.27 3234.17 1839.56L3234.6 1804.36C3239.76 1805.07 3243.65 1805.19 3246.27 1804.71 3248.9 1804.23 3251.13 1803.09 3252.97 1801.31 3254.18 1800.07 3254.98 1798.18 3255.36 1795.63 3255.96 1791.6 3254.9 1788.41 3252.18 1786.08 3249.46 1783.75 3244.55 1782.05 3237.44 1781Z" fill="#FFFFFF" fill-rule="evenodd"/><text fill="#000000" fill-opacity="0" font-family="Arial,Arial_MSFontService,sans-serif" font-size="105.67" x="3165.46" y="1826.58">J</text><path d="M3186.09 1688.95 3199.8 1655.04 3309.3 1699.31 3295.59 1733.22Z" fill="#FFFFFF" fill-rule="evenodd"/><text fill="#000000" fill-opacity="0" font-family="Arial,Arial_MSFontService,sans-serif" font-size="78.179" x="3186.09" y="1723.45">I</text><path d="M3276.44 1585.9 3302.63 1621.72 3318.21 1600.99ZM3240.28 1583.06 3264.2 1551.24 3385.28 1586.72 3362.31 1617.27 3343.18 1610.28 3318.28 1643.4 3330.41 1659.72 3308.02 1689.51Z" fill="#FFFFFF" fill-rule="evenodd"/><text fill="#000000" fill-opacity="0" font-family="Arial,Arial_MSFontService,sans-serif" font-size="138.274" x="3240.28" y="1672.22">A</text><path d="M3392.87 1443.23 3424.39 1424.68 3456.94 1479.98C3463.77 1491.59 3467.94 1501.03 3469.44 1508.31 3470.95 1515.58 3469.83 1523.15 3466.08 1531.02 3462.33 1538.9 3455.6 1545.69 3445.87 1551.41 3435.6 1557.46 3426.82 1560.76 3419.54 1561.3 3412.25 1561.85 3405.5 1560.35 3399.28 1556.82 3393.05 1553.28 3387.35 1547.74 3382.16 1540.2L3409.82 1518.41C3412.5 1522.88 3414.86 1525.98 3416.88 1527.72 3418.9 1529.46 3421.19 1530.48 3423.74 1530.79 3425.46 1530.96 3427.43 1530.39 3429.65 1529.08 3433.17 1527.01 3434.98 1524.19 3435.09 1520.61 3435.19 1517.03 3433.42 1512.14 3429.77 1505.94Z" fill="#FFFFFF" fill-rule="evenodd"/><text fill="#000000" fill-opacity="0" font-family="Arial,Arial_MSFontService,sans-serif" font-size="136.737" x="3382.16" y="1544.32">J</text><path d="M3469.15 1408.14 3504.15 1397.49 3538.53 1510.48 3503.54 1521.13Z" fill="#FFFFFF" fill-rule="evenodd"/><text fill="#000000" fill-opacity="0" font-family="Arial,Arial_MSFontService,sans-serif" font-size="123.643" x="3469.15" y="1505.68">I</text><path d="M3606.09 1413.66 3594.69 1456.55 3620.61 1455.64ZM3585.57 1383.75 3625.35 1382.35 3673.86 1498.83 3635.66 1500.17 3629.07 1480.9 3587.66 1482.35 3582.6 1502.04 3545.35 1503.35Z" fill="#FFFFFF" fill-rule="evenodd"/><text fill="#000000" fill-opacity="0" font-family="Arial,Arial_MSFontService,sans-serif" font-size="120.998" x="3545.35" y="1488.23">A</text><path d="M3790.51 1414.61 3824.73 1427.53 3802.08 1487.56C3797.32 1500.17 3792.59 1509.34 3787.87 1515.07 3783.15 1520.81 3776.55 1524.68 3768.06 1526.7 3759.58 1528.72 3750.06 1527.74 3739.51 1523.76 3728.35 1519.55 3720.28 1514.78 3715.29 1509.45 3710.29 1504.12 3707.22 1497.93 3706.07 1490.86 3704.92 1483.79 3705.65 1475.88 3708.27 1467.11L3742.59 1474.98C3740.8 1479.87 3739.86 1483.65 3739.78 1486.31 3739.69 1488.98 3740.32 1491.4 3741.68 1493.58 3742.63 1495.03 3744.31 1496.21 3746.72 1497.12 3750.54 1498.56 3753.88 1498.2 3756.73 1496.03 3759.59 1493.87 3762.28 1489.42 3764.82 1482.69Z" fill="#FFFFFF" fill-rule="evenodd"/><text fill="#000000" fill-opacity="0" font-family="Arial,Arial_MSFontService,sans-serif" font-size="113.11" x="3705.54" y="1513.58">J</text><path d="M3865.63 1451.99 3895.89 1472.54 3829.52 1570.24 3799.26 1549.68Z" fill="#FFFFFF" fill-rule="evenodd"/><text fill="#000000" fill-opacity="0" font-family="Arial,Arial_MSFontService,sans-serif" font-size="118.252" x="3799.26" y="1555.46">I</text><path d="M3947.29 1561.88 3906.78 1579.99 3923.8 1599.57ZM3957.64 1527.11 3983.75 1557.16 3923.72 1668.13 3898.65 1639.29 3909.49 1622.04 3882.31 1590.76 3863.81 1599.21 3839.37 1571.08Z" fill="#FFFFFF" fill-rule="evenodd"/><text fill="#000000" fill-opacity="0" font-family="Arial,Arial_MSFontService,sans-serif" font-size="141.024" x="3839.37" y="1650.5">A</text><path d="M4062.4 1705.86 4073.87 1740.59 4012.93 1760.7C4000.14 1764.92 3990.03 1767 3982.6 1766.94 3975.18 1766.87 3968.01 1764.17 3961.11 1758.84 3954.21 1753.51 3948.99 1745.49 3945.45 1734.78 3941.72 1723.46 3940.35 1714.18 3941.36 1706.95 3942.36 1699.72 3945.25 1693.43 3950.03 1688.1 3954.8 1682.76 3961.42 1678.35 3969.89 1674.88L3985.33 1706.52C3980.4 1708.2 3976.87 1709.85 3974.75 1711.46 3972.62 1713.06 3971.13 1715.08 3970.29 1717.51 3969.76 1719.15 3969.9 1721.2 3970.71 1723.65 3971.99 1727.52 3974.37 1729.89 3977.84 1730.75 3981.32 1731.61 3986.47 1730.92 3993.3 1728.66Z" fill="#FFFFFF" fill-rule="evenodd"/><text fill="#000000" fill-opacity="0" font-family="Arial,Arial_MSFontService,sans-serif" font-size="92.0566" x="3941.04" y="1755.43">J</text><path d="M4080.52 1787.72 4083.55 1824.17 3965.84 1833.94 3962.82 1797.49Z" fill="#FFFFFF" fill-rule="evenodd"/><text fill="#000000" fill-opacity="0" font-family="Arial,Arial_MSFontService,sans-serif" font-size="46.2216" x="3962.82" y="1828.17">I</text><path d="M4046.42 1920.51 4006.86 1900.4 4002.34 1925.94ZM4079.96 1906.7 4073.01 1945.9 3948.97 1968.98 3955.64 1931.35 3975.87 1928.93 3983.1 1888.14 3964.91 1879.06 3971.41 1842.37Z" fill="#FFFFFF" fill-rule="evenodd"/><text fill="#000000" fill-opacity="0" font-family="Arial,Arial_MSFontService,sans-serif" font-size="126.61" x="3948.97" y="1953.16">A</text><path d="M4006.58 2100.52 3986.73 2131.25 3932.83 2096.43C3921.51 2089.12 3913.55 2082.56 3908.94 2076.73 3904.33 2070.91 3901.93 2063.64 3901.75 2054.92 3901.57 2046.2 3904.54 2037.11 3910.66 2027.63 3917.13 2017.62 3923.49 2010.73 3929.75 2006.97 3936.02 2003.22 3942.72 2001.52 3949.87 2001.89 3957.02 2002.25 3964.6 2004.64 3972.62 2009.06L3957.69 2040.94C3953.28 2038.16 3949.79 2036.44 3947.2 2035.79 3944.61 2035.15 3942.11 2035.26 3939.7 2036.13 3938.08 2036.75 3936.58 2038.14 3935.18 2040.3 3932.96 2043.73 3932.61 2047.07 3934.12 2050.32 3935.64 2053.57 3939.41 2057.14 3945.45 2061.04Z" fill="#FFFFFF" fill-rule="evenodd"/><text fill="#000000" fill-opacity="0" font-family="Arial,Arial_MSFontService,sans-serif" font-size="129.409" x="3901.74" y="2115.07">J</text><path d="M3954.35 2165.98 3927.92 2191.26 3846.28 2105.91 3872.71 2080.63Z" fill="#FFFFFF" fill-rule="evenodd"/><text fill="#000000" fill-opacity="0" font-family="Arial,Arial_MSFontService,sans-serif" font-size="110.635" x="3846.28" y="2177.43">I</text><path d="M3829.78 2222.84 3820.57 2179.43 3797.86 2191.96ZM3861.6 2240.25 3826.74 2259.48 3730.84 2177.49 3764.3 2159.03 3778.89 2173.25 3815.17 2153.24 3810.8 2133.38 3843.43 2115.39Z" fill="#FFFFFF" fill-rule="evenodd"/><text fill="#000000" fill-opacity="0" font-family="Arial,Arial_MSFontService,sans-serif" font-size="144.089" x="3730.84" y="2241.47">A</text><path d="M3664.67 2304.98 3628.3 2308.85 3621.52 2245.04C3620.1 2231.64 3620.2 2221.32 3621.84 2214.08 3623.47 2206.83 3627.62 2200.4 3634.29 2194.78 3640.96 2189.16 3649.9 2185.75 3661.11 2184.56 3672.97 2183.3 3682.33 2183.93 3689.18 2186.44 3696.04 2188.95 3701.57 2193.1 3705.78 2198.9 3709.99 2204.69 3712.89 2212.09 3714.5 2221.1L3680.31 2229.51C3679.71 2224.34 3678.84 2220.54 3677.72 2218.12 3676.6 2215.7 3674.94 2213.83 3672.75 2212.49 3671.25 2211.62 3669.22 2211.33 3666.66 2211.6 3662.6 2212.03 3659.78 2213.85 3658.21 2217.07 3656.63 2220.29 3656.22 2225.47 3656.98 2232.62Z" fill="#FFFFFF" fill-rule="evenodd"/><text fill="#000000" fill-opacity="0" font-family="Arial,Arial_MSFontService,sans-serif" font-size="124.919" x="3620.53" y="2293.23">J</text><path d="M3580.77 2305.52 3544.49 2300.87 3559.51 2183.72 3595.79 2188.37Z" fill="#FFFFFF" fill-rule="evenodd"/><text fill="#000000" fill-opacity="0" font-family="Arial,Arial_MSFontService,sans-serif" font-size="121.802" x="3544.49" y="2290.3">I</text><path d="M3458.14 2244.27 3486.18 2209.87 3462.18 2200.04ZM3464.53 2279.97 3427.7 2264.88 3431.42 2138.76 3466.78 2153.25 3464.86 2173.53 3503.2 2189.25 3515.92 2173.39 3550.4 2187.52Z" fill="#FFFFFF" fill-rule="evenodd"/><text fill="#000000" fill-opacity="0" font-family="Arial,Arial_MSFontService,sans-serif" font-size="141.215" x="3427.7" y="2262.32">A</text><path d="M3290.72 2167.48 3264.83 2141.64 3310.17 2096.22C3319.69 2086.69 3327.78 2080.28 3334.44 2076.99 3341.09 2073.7 3348.71 2072.88 3357.27 2074.53 3365.83 2076.18 3374.11 2080.98 3382.09 2088.95 3390.53 2097.38 3395.93 2105.04 3398.29 2111.95 3400.65 2118.86 3400.9 2125.78 3399.05 2132.69 3397.19 2139.6 3393.27 2146.52 3387.27 2153.44L3359.22 2132.16C3362.87 2128.43 3365.28 2125.37 3366.45 2122.98 3367.63 2120.58 3368.04 2118.11 3367.7 2115.57 3367.43 2113.86 3366.38 2112.1 3364.56 2110.27 3361.67 2107.39 3358.48 2106.35 3354.99 2107.15 3351.5 2107.95 3347.21 2110.89 3342.13 2115.98Z" fill="#FFFFFF" fill-rule="evenodd"/><text fill="#000000" fill-opacity="0" font-family="Arial,Arial_MSFontService,sans-serif" font-size="93.7732" x="3264.83" y="2155.76">J</text><path d="M3237.65 2102.72 3218.47 2071.58 3319.03 2009.64 3338.22 2040.78Z" fill="#FFFFFF" fill-rule="evenodd"/><text fill="#000000" fill-opacity="0" font-family="Arial,Arial_MSFontService,sans-serif" font-size="93.0867" x="3218.47" y="2091.09">I</text><path d="M3208.22 1968.85 3252.59 1969.04 3245.15 1944.19ZM3184.47 1996.27 3173.05 1958.14 3273.47 1881.74 3284.43 1918.36 3267.45 1929.61 3279.33 1969.3 3299.66 1969.23 3310.35 2004.93Z" fill="#FFFFFF" fill-rule="evenodd"/><text fill="#000000" fill-opacity="0" font-family="Arial,Arial_MSFontService,sans-serif" font-size="123.182" x="3173.05" y="1989.53">A</text></g></svg>